<svg width="414" height="515" viewBox="0 0 414 515" fill="none" xmlns="http://www.w3.org/2000/svg">
<path d="M90.1797 420.795C92.3232 420.795 93.7012 419.57 93.7012 417.58C93.7012 415.742 92.3232 414.517 90.1797 414.517H85.7396V420.795H90.1797ZM82.2182 431.972V411.761H90.3328C94.3136 411.761 96.9164 414.211 96.9164 417.733C96.9164 421.407 94.3136 423.704 90.3328 423.704H85.5865V431.819H82.2182V431.972Z" fill="white"/>
<path d="M100.744 427.838C100.744 429.063 101.663 429.675 103.194 429.675C105.49 429.675 107.021 427.838 107.021 425.541V425.082L104.112 425.388C101.816 425.694 100.744 426.307 100.744 427.838ZM102.581 432.125C99.5192 432.125 97.3757 430.441 97.3757 427.838C97.3757 424.929 99.3661 423.398 103.959 422.938L106.868 422.632V422.326C106.868 420.642 105.643 419.57 103.806 419.57C102.122 419.57 100.897 420.489 100.591 422.173H97.3757C97.8351 419.264 100.132 416.967 103.806 416.967C107.481 416.967 110.084 418.958 110.084 422.632V431.819H106.868V429.675C106.409 431.053 104.572 432.125 102.581 432.125Z" fill="white"/>
<path d="M121.107 420.336C120.954 420.336 120.495 420.182 120.189 420.182C117.892 420.182 116.055 422.02 116.055 426.46V431.972H112.839V417.426H116.055V419.723C116.973 418.192 118.658 417.273 120.342 417.273C120.801 417.273 120.954 417.273 121.107 417.273V420.336Z" fill="white"/>
<path d="M129.222 432.125C126.466 432.125 124.323 430.441 124.323 427.226V419.876H121.873V417.273H124.323V413.599H127.538V417.273H131.059V419.876H127.538V426.919C127.538 428.451 128.303 429.216 129.681 429.216C130.141 429.216 130.753 429.063 131.365 428.91V431.666C130.753 431.972 129.987 432.125 129.222 432.125Z" fill="white"/>
<path d="M146.676 429.369C149.279 429.369 150.963 427.379 150.963 424.623C150.963 421.867 149.126 419.876 146.676 419.876C144.073 419.876 142.389 421.867 142.389 424.623C142.236 427.532 144.073 429.369 146.676 429.369ZM146.676 432.125C142.236 432.125 139.021 428.91 139.021 424.623C139.021 420.335 142.236 417.12 146.676 417.12C151.116 417.12 154.331 420.182 154.331 424.623C154.178 429.063 150.963 432.125 146.676 432.125Z" fill="white"/>
<path d="M157.853 416.048C157.853 412.833 159.996 411.149 162.752 411.149C163.518 411.149 164.13 411.302 164.743 411.455V414.211C164.283 414.058 163.671 413.905 163.212 413.905C161.987 413.905 161.221 414.67 161.221 416.202V417.426H164.743V420.029H161.221V431.972H158.006V420.029H155.403V417.426H157.853V416.048Z" fill="white"/>
<path d="M181.278 432.125C176.838 432.125 173.623 429.675 173.317 425.082H176.685C176.991 427.838 178.828 429.216 181.431 429.216C183.728 429.216 185.259 428.144 185.259 426.46C185.259 421.714 174.082 424.317 174.082 417.12C174.082 413.752 176.991 411.608 180.972 411.608C185.259 411.608 188.015 413.905 188.474 417.58H185.106C184.8 415.589 183.115 414.517 180.972 414.517C178.828 414.517 177.45 415.436 177.45 416.967C177.45 421.101 188.627 418.498 188.627 426.307C188.627 429.829 185.565 432.125 181.278 432.125Z" fill="white"/>
<path d="M198.579 429.522C201.182 429.522 202.866 427.532 202.866 424.776C202.866 422.02 201.029 420.029 198.579 420.029C195.976 420.029 194.292 422.02 194.292 424.776C194.139 427.532 195.976 429.522 198.579 429.522ZM198.579 432.125C194.139 432.125 190.924 428.91 190.924 424.623C190.924 420.182 194.139 417.12 198.579 417.12C203.019 417.12 206.234 420.182 206.234 424.623C206.081 429.063 203.019 432.125 198.579 432.125Z" fill="white"/>
<path d="M215.727 429.522C218.33 429.522 220.167 427.532 220.167 424.776C220.167 421.867 218.33 420.029 215.727 420.029C213.124 420.029 211.287 422.02 211.287 424.776C211.44 427.532 213.124 429.522 215.727 429.522ZM208.225 437.178V417.426H211.44V419.417C212.359 418.039 214.196 417.12 216.186 417.12C220.626 417.12 223.536 420.029 223.536 424.623C223.536 429.216 220.626 432.125 216.186 432.125C214.196 432.125 212.359 431.206 211.44 429.828V437.178H208.225Z" fill="white"/>
<path d="M225.526 431.972V417.426H228.741V419.723C229.66 418.192 231.344 417.273 233.181 417.273C233.794 417.273 234.406 417.426 234.865 417.58V420.642C234.253 420.336 233.487 420.336 232.875 420.336C230.578 420.336 228.741 422.326 228.741 426.613V432.278H225.526V431.972Z" fill="white"/>
<path d="M239.612 427.838C239.612 429.063 240.53 429.675 242.061 429.675C244.358 429.675 245.889 427.838 245.889 425.541V425.082L242.98 425.388C240.53 425.694 239.612 426.307 239.612 427.838ZM241.449 432.125C238.387 432.125 236.243 430.441 236.243 427.838C236.243 424.929 238.234 423.398 242.827 422.938L245.736 422.632V422.479C245.736 420.795 244.511 419.723 242.674 419.723C240.99 419.723 239.765 420.642 239.459 422.326H236.243C236.703 419.417 238.999 417.12 242.674 417.12C246.348 417.12 248.951 419.111 248.951 422.785V431.972H245.736V429.828C245.277 431.053 243.439 432.125 241.449 432.125Z" fill="white"/>
<path d="M265.64 432.125C261.2 432.125 257.984 429.675 257.678 425.082H261.047C261.353 427.838 263.19 429.216 265.793 429.216C268.089 429.216 269.621 428.144 269.621 426.46C269.621 421.714 258.444 424.317 258.444 417.12C258.444 413.752 261.353 411.608 265.334 411.608C269.621 411.608 272.376 413.905 272.836 417.58H269.467C269.161 415.589 267.477 414.517 265.334 414.517C263.19 414.517 261.812 415.436 261.812 416.967C261.812 421.101 272.989 418.498 272.989 426.307C272.836 429.829 269.774 432.125 265.64 432.125Z" fill="white"/>
<path d="M281.41 432.125C278.654 432.125 276.51 430.441 276.51 427.226V419.876H274.061V417.273H276.51V413.599H279.726V417.273H283.247V419.876H279.726V426.919C279.726 428.451 280.491 429.216 281.869 429.216C282.328 429.216 282.941 429.063 283.553 428.91V431.666C282.788 432.125 282.175 432.125 281.41 432.125Z" fill="white"/>
<path d="M287.993 422.785H295.649C295.649 420.795 294.118 419.57 291.974 419.57C289.984 419.723 288.453 420.795 287.993 422.785ZM292.127 432.125C287.687 432.125 284.625 429.063 284.625 424.623C284.625 420.182 287.687 417.12 291.974 417.12C296.72 417.12 299.476 420.642 298.864 425.235H287.84C287.993 427.991 289.678 429.522 292.127 429.522C293.965 429.522 295.189 428.604 295.649 427.226H298.864C298.251 430.135 295.802 432.125 292.127 432.125Z" fill="white"/>
<path d="M301.773 431.972V417.426H304.988V419.723C305.907 418.192 307.591 417.273 309.428 417.273C310.041 417.273 310.653 417.426 311.112 417.58V420.642C310.5 420.336 309.734 420.336 309.122 420.336C306.825 420.336 304.988 422.326 304.988 426.613V432.278H301.773V431.972Z" fill="white"/>
<path d="M314.634 414.977C313.409 414.977 312.643 414.211 312.643 412.986C312.643 411.914 313.562 410.996 314.634 410.996C315.859 410.996 316.624 411.761 316.624 412.986C316.624 414.211 315.706 414.977 314.634 414.977ZM312.95 431.972V417.426H316.165V431.972H312.95Z" fill="white"/>
<path d="M322.289 427.838C322.289 429.063 323.208 429.675 324.739 429.675C327.036 429.675 328.567 427.838 328.567 425.541V425.082L325.658 425.388C323.361 425.694 322.289 426.307 322.289 427.838ZM324.28 432.125C321.217 432.125 319.074 430.441 319.074 427.838C319.074 424.929 321.064 423.398 325.658 422.938L328.567 422.632V422.479C328.567 420.795 327.342 419.723 325.504 419.723C323.82 419.723 322.595 420.642 322.289 422.326H319.227C319.686 419.417 321.983 417.12 325.658 417.12C329.332 417.12 331.935 419.111 331.935 422.785V431.972H328.72V429.828C328.107 431.053 326.27 432.125 324.28 432.125Z" fill="white"/>
<path fill-rule="evenodd" clip-rule="evenodd" d="M197.814 261.711H212.053V235.528H141.164V302.132H167.039V269.826C176.532 272.275 186.637 282.534 186.637 298.305C186.637 305.042 184.953 312.544 181.737 317.903C178.522 323.262 173.929 327.243 167.958 330.305C161.987 333.367 155.862 334.745 147.901 334.745C139.939 334.745 135.346 333.214 129.375 330.305C123.404 327.396 118.658 323.262 115.595 318.209C112.38 313.157 110.696 305.807 110.696 299.07C110.696 291.568 112.686 283.912 116.514 279.166C120.342 274.419 125.241 271.663 131.212 270.744L124.322 237.672C117.586 239.203 111.462 241.806 105.95 245.787C98.6006 251.146 92.7825 258.342 88.6486 267.223C84.5148 276.256 82.3713 287.74 82.3713 298.917C82.3713 312.238 85.1272 325.406 90.7921 335.817C96.4571 346.229 104.419 354.191 114.524 359.856C124.782 365.521 134.427 368.43 147.901 368.43C162.293 368.43 173.929 365.368 184.034 359.397C194.139 353.272 201.947 345.157 207.153 335.052C212.359 324.946 214.962 312.238 214.962 300.142C214.962 293.405 212.512 283.759 210.062 278.094C207.153 271.969 202.56 265.692 197.814 261.711Z" fill="white"/>
<path fill-rule="evenodd" clip-rule="evenodd" d="M314.94 244.103C305.447 236.447 292.74 232.772 277.429 232.772C268.702 232.772 260.587 234.456 253.238 237.672C245.736 241.04 239.918 245.634 235.631 251.605C231.344 257.73 229.2 264.467 229.2 272.122C229.2 281.462 231.344 288.965 235.784 294.324C240.224 299.836 245.43 303.97 251.248 306.42C257.219 309.022 264.721 311.472 273.754 313.922C279.419 315.453 283.706 316.678 286.615 317.75C289.524 318.822 292.127 320.2 294.118 322.19C296.261 324.028 297.18 326.324 297.18 328.927C297.18 331.224 296.414 333.214 295.036 334.899C293.658 336.736 291.668 337.961 289.065 338.726C286.615 339.492 283.706 340.104 280.491 340.104C276.51 340.104 272.989 339.339 269.774 337.961C266.558 336.583 263.803 334.439 261.812 331.683C259.669 328.927 258.444 325.559 257.831 321.271L225.526 328.008C226.904 335.052 229.66 341.329 233.334 346.535C238.234 353.578 244.664 358.784 252.932 362.612C261.047 366.287 270.386 368.124 280.797 368.124C291.209 368.124 299.476 366.44 307.132 363.071C314.787 359.703 320.758 354.956 325.198 348.526C329.485 342.095 331.782 334.899 331.782 326.477C331.782 316.678 329.485 308.716 324.739 302.898C320.146 297.08 314.634 292.792 308.356 290.036C302.079 287.28 294.118 284.831 284.931 282.381C280.032 281.156 276.204 280.084 273.448 279.165H273.295C270.539 278.4 268.243 277.022 266.405 275.491C264.568 273.96 263.649 271.969 263.649 269.672C263.649 267.835 264.262 266.151 265.334 264.62C266.405 263.089 268.089 262.017 270.233 261.251C272.376 260.486 274.673 260.026 277.429 260.026C282.788 260.026 287.228 261.404 291.055 264.16C294.73 266.916 297.333 270.744 298.251 275.338L330.404 268.601C328.107 258.801 322.902 250.38 314.94 244.103Z" fill="white"/>
<path fill-rule="evenodd" clip-rule="evenodd" d="M193.68 186.532H131.825V163.565H180.359V134.78H131.825V115.947H192.455V87.1619H98.2944V215.317H193.68V186.532Z" fill="white"/>
<path fill-rule="evenodd" clip-rule="evenodd" d="M285.237 215.93C279.419 218.38 273.295 219.758 266.558 219.758C254.463 219.911 243.439 217.308 233.334 211.949C223.382 206.59 215.268 198.934 209.297 188.523C203.325 178.111 200.263 165.709 200.263 151.316C200.263 137.689 203.172 125.593 208.684 115.335C214.349 104.923 222.311 96.9611 232.416 91.2959C242.674 85.4776 254.31 82.7216 267.477 82.7216C278.501 82.7216 288.453 84.8652 297.333 88.9992C306.213 93.2864 313.409 98.9516 318.615 106.607C322.595 112.272 325.198 118.397 326.729 125.134L293.964 132.177C293.199 126.206 290.596 121.153 285.85 117.325C281.104 113.497 274.979 111.507 267.477 111.507C260.893 111.507 255.075 113.191 250.023 116.406C245.124 119.622 240.99 124.368 238.081 130.34C235.172 136.464 233.794 143.354 233.794 151.316C233.794 159.431 235.325 166.474 238.234 172.446C241.296 178.57 245.277 183.164 250.482 186.379C255.688 189.594 261.659 191.279 268.396 191.279C273.601 191.279 278.195 190.513 282.328 188.676C286.462 186.838 289.831 184.542 292.433 181.479C295.189 178.417 296.72 174.742 297.333 170.762H264.262V144.273H328.567V216.695H302.538V203.068C299.17 207.815 291.974 213.021 285.237 215.93Z" fill="white"/>
</svg>
